<?xml version="1.0" encoding="UTF-8"?>
<svg version="1.1" xmlns="http://www.w3.org/2000/svg" width="600" height="600">
<path d="M0 0 C2.22216797 1.00878906 2.22216797 1.00878906 4.4921875 2.265625 C5.35038086 2.73693848 6.20857422 3.20825195 7.09277344 3.69384766 C8.0109082 4.20737793 8.92904297 4.7209082 9.875 5.25 C10.83954102 5.78286621 11.80408203 6.31573242 12.79785156 6.86474609 C21.72213959 11.80842681 30.59934349 16.83666031 39.47265625 21.87109375 C44.69786655 24.83354013 49.93758499 27.76908239 55.1875 30.6875 C55.92387695 31.09758301 56.66025391 31.50766602 57.41894531 31.93017578 C60.58265159 33.6858754 63.74092104 35.42519957 67 37 C67 37.66 67 38.32 67 39 C67.6703125 39.07347656 68.340625 39.14695313 69.03125 39.22265625 C73.00800434 40.26393798 76.04774045 42.25334767 79.5 44.4375 C83.57529976 46.99162351 87.43502222 49.39347897 92 51 C92 51.66 92 52.32 92 53 C92.82628906 53.24105469 93.65257812 53.48210938 94.50390625 53.73046875 C98.58983157 55.21418465 102.1697408 57.16533679 105.9375 59.3125 C107.10551147 59.96955933 107.10551147 59.96955933 108.29711914 60.63989258 C110.86785006 62.0878394 113.43414953 63.54342438 116 65 C117.78108702 66.00810051 119.56233987 67.01590807 121.34375 68.0234375 C124.17623485 69.62548432 127.00858419 71.22776251 129.84008789 72.83154297 C137.33143436 77.07035094 144.84808152 81.26223121 152.375 85.4375 C191.41398067 107.10283419 191.41398067 107.10283419 203.01171875 114.23046875 C205.92392456 116.00342267 205.92392456 116.00342267 208.7578125 117.375 C213.34007848 119.67165379 217.74818794 122.25273697 222.1875 124.8125 C228.58721839 128.48837357 235.00002958 132.12150471 241.49609375 135.625 C255.0899654 143.0899654 255.0899654 143.0899654 257 145 C257.0969974 146.57427207 257.12371644 148.15291485 257.12304783 149.73017216 C257.12503888 150.7597649 257.12702993 151.78935764 257.12908131 152.85015017 C257.12616847 153.99506707 257.12325563 155.13998398 257.12025452 156.31959534 C257.12110894 157.52509771 257.12196337 158.73060008 257.12284368 159.97263283 C257.1242119 163.33385923 257.12106432 166.69502811 257.11606562 170.05624759 C257.11176451 173.67521408 257.1132073 177.29417865 257.1139679 180.91314697 C257.11449335 187.18827807 257.11134434 193.46339881 257.10573006 199.7385273 C257.09761791 208.81141341 257.09500013 217.88429449 257.09374207 226.95718383 C257.0915511 241.67580443 257.08488979 256.39441951 257.07543945 271.11303711 C257.0662665 285.41446912 257.0591851 299.71589963 257.05493164 314.01733398 C257.05466892 314.89823496 257.05440619 315.77913593 257.05413551 316.68673087 C257.05283051 321.10576125 257.05156679 325.52479163 257.05032361 329.94382203 C257.03994959 366.62921859 257.02233006 403.31460886 257 440 C255.8351709 440.61474686 254.6703418 441.22949371 253.47021484 441.86286926 C251.92543727 442.67913378 250.38067919 443.49543516 248.8359375 444.31176758 C248.07015381 444.71579048 247.30437012 445.11981339 246.51538086 445.53607941 C240.94650332 448.48033165 235.44758386 451.52403407 230 454.6875 C222.23775277 459.157794 214.44509065 463.56917307 206.625 467.9375 C197.41280064 473.0853057 188.21615644 478.25958863 179.03173828 483.45678711 C173.06968763 486.83052855 167.10283844 490.19546795 161.13012695 493.55029297 C157.26281896 495.72377811 153.39962923 497.90440417 149.5390625 500.08984375 C147.56771508 501.20574109 145.59636079 502.32162628 143.625 503.4375 C142.64571533 503.99187744 141.66643066 504.54625488 140.6574707 505.11743164 C134.51789923 508.58886444 128.36058261 512.02607687 122.1875 515.4375 C116.87066592 518.37634568 111.61666551 521.38418762 106.43164062 524.55175781 C104.01682475 525.98997947 101.57349708 527.34615053 99.1015625 528.68359375 C94.77550744 531.03289952 90.45612195 533.39379626 86.14453125 535.76953125 C85.55361694 536.09512024 84.96270264 536.42070923 84.35388184 536.75616455 C67.0218382 546.31014375 49.74520989 555.92041006 32.68432617 565.95361328 C27.00989374 569.28214595 21.28966609 572.49523904 15.50219727 575.62280273 C13.31497551 576.826639 11.17126415 578.07314702 9.0390625 579.37109375 C7.91242188 580.05300781 6.78578125 580.73492188 5.625 581.4375 C5.04878906 581.80037109 4.47257812 582.16324219 3.87890625 582.53710938 C1.30179059 584.07222497 -0.37957819 585.06887309 -3.41699219 584.73168945 C-6.03124273 583.99114986 -8.1183475 583.04869295 -10.4921875 581.734375 C-11.35038086 581.26306152 -12.20857422 580.79174805 -13.09277344 580.30615234 C-14.0109082 579.79262207 -14.92904297 579.2790918 -15.875 578.75 C-17.32181152 577.95070068 -17.32181152 577.95070068 -18.79785156 577.13525391 C-27.72213959 572.19157319 -36.59934349 567.16333969 -45.47265625 562.12890625 C-50.69786655 559.16645987 -55.93758499 556.23091761 -61.1875 553.3125 C-61.92387695 552.90241699 -62.66025391 552.49233398 -63.41894531 552.06982422 C-66.58265159 550.3141246 -69.74092104 548.57480043 -73 547 C-73 546.34 -73 545.68 -73 545 C-73.6703125 544.92652344 -74.340625 544.85304688 -75.03125 544.77734375 C-79.00800434 543.73606202 -82.04774045 541.74665233 -85.5 539.5625 C-89.57529976 537.00837649 -93.43502222 534.60652103 -98 533 C-98 532.34 -98 531.68 -98 531 C-98.82628906 530.75894531 -99.65257812 530.51789062 -100.50390625 530.26953125 C-104.58983157 528.78581535 -108.1697408 526.83466321 -111.9375 524.6875 C-113.10551147 524.03044067 -113.10551147 524.03044067 -114.29711914 523.36010742 C-116.86785006 521.9121606 -119.43414953 520.45657562 -122 519 C-123.78108702 517.99189949 -125.56233987 516.98409193 -127.34375 515.9765625 C-130.17623485 514.37451568 -133.00858419 512.77223749 -135.84008789 511.16845703 C-143.33143436 506.92964906 -150.84808152 502.73776879 -158.375 498.5625 C-197.41398067 476.89716581 -197.41398067 476.89716581 -209.01171875 469.76953125 C-211.92392456 467.99657733 -211.92392456 467.99657733 -214.7578125 466.625 C-219.34007848 464.32834621 -223.74818794 461.74726303 -228.1875 459.1875 C-234.58721839 455.51162643 -241.00002958 451.87849529 -247.49609375 448.375 C-261.0899654 440.9100346 -261.0899654 440.9100346 -263 439 C-263.0969974 437.42572793 -263.12371644 435.84708515 -263.12304783 434.26982784 C-263.1260344 432.72543873 -263.1260344 432.72543873 -263.12908131 431.14984983 C-263.12471205 429.43247447 -263.12471205 429.43247447 -263.12025452 427.68040466 C-263.12110894 426.47490229 -263.12196337 425.26939992 -263.12284368 424.02736717 C-263.1242119 420.66614077 -263.12106432 417.30497189 -263.11606562 413.94375241 C-263.11176451 410.32478592 -263.1132073 406.70582135 -263.1139679 403.08685303 C-263.11449335 396.81172193 -263.11134434 390.53660119 -263.10573006 384.2614727 C-263.09761791 375.18858659 -263.09500013 366.11570551 -263.09374207 357.04281617 C-263.0915511 342.32419557 -263.08488979 327.60558049 -263.07543945 312.88696289 C-263.0662665 298.58553088 -263.0591851 284.28410037 -263.05493164 269.98266602 C-263.05466892 269.10176504 -263.05440619 268.22086407 -263.05413551 267.31326913 C-263.05283051 262.89423875 -263.05156679 258.47520837 -263.05032361 254.05617797 C-263.03994959 217.37078141 -263.02233006 180.68539114 -263 144 C-261.8351709 143.38525314 -260.6703418 142.77050629 -259.47021484 142.13713074 C-257.92543727 141.32086622 -256.38067919 140.50456484 -254.8359375 139.68823242 C-253.68726196 139.08219807 -253.68726196 139.08219807 -252.51538086 138.46392059 C-246.94650332 135.51966835 -241.44758386 132.47596593 -236 129.3125 C-228.23775277 124.842206 -220.44509065 120.43082693 -212.625 116.0625 C-203.41280064 110.9146943 -194.21615644 105.74041137 -185.03173828 100.54321289 C-179.06968763 97.16947145 -173.10283844 93.80453205 -167.13012695 90.44970703 C-163.26281896 88.27622189 -159.39962923 86.09559583 -155.5390625 83.91015625 C-153.56771508 82.79425891 -151.59636079 81.67837372 -149.625 80.5625 C-148.64571533 80.00812256 -147.66643066 79.45374512 -146.6574707 78.88256836 C-140.51789923 75.41113556 -134.36058261 71.97392313 -128.1875 68.5625 C-122.87066592 65.62365432 -117.61666551 62.61581238 -112.43164062 59.44824219 C-110.01682475 58.01002053 -107.57349708 56.65384947 -105.1015625 55.31640625 C-100.77550744 52.96710048 -96.45612195 50.60620374 -92.14453125 48.23046875 C-91.55361694 47.90487976 -90.96270264 47.57929077 -90.35388184 47.24383545 C-73.0218382 37.68985625 -55.74520989 28.07958994 -38.68432617 18.04638672 C-33.00989374 14.71785405 -27.28966609 11.50476096 -21.50219727 8.37719727 C-19.31497551 7.173361 -17.17126415 5.92685298 -15.0390625 4.62890625 C-13.91242188 3.94699219 -12.78578125 3.26507812 -11.625 2.5625 C-11.04878906 2.19962891 -10.47257813 1.83675781 -9.87890625 1.46289062 C-6.05346062 -0.81582016 -4.23219465 -1.19885514 0 0 Z " fill="#0F172A" transform="translate(299,6)"/>
<path d="M0 0 C2.22216797 1.00878906 2.22216797 1.00878906 4.4921875 2.265625 C5.35038086 2.73693848 6.20857422 3.20825195 7.09277344 3.69384766 C8.0109082 4.20737793 8.92904297 4.7209082 9.875 5.25 C10.83954102 5.78286621 11.80408203 6.31573242 12.79785156 6.86474609 C21.72213959 11.80842681 30.59934349 16.83666031 39.47265625 21.87109375 C44.69786655 24.83354013 49.93758499 27.76908239 55.1875 30.6875 C55.92387695 31.09758301 56.66025391 31.50766602 57.41894531 31.93017578 C60.58265159 33.6858754 63.74092104 35.42519957 67 37 C67 37.66 67 38.32 67 39 C67.6703125 39.07347656 68.340625 39.14695313 69.03125 39.22265625 C73.00800434 40.26393798 76.04774045 42.25334767 79.5 44.4375 C83.57529976 46.99162351 87.43502222 49.39347897 92 51 C92 51.66 92 52.32 92 53 C92.82628906 53.24105469 93.65257812 53.48210938 94.50390625 53.73046875 C98.58983157 55.21418465 102.1697408 57.16533679 105.9375 59.3125 C107.10551147 59.96955933 107.10551147 59.96955933 108.29711914 60.63989258 C110.86785006 62.0878394 113.43414953 63.54342438 116 65 C117.78108702 66.00810051 119.56233987 67.01590807 121.34375 68.0234375 C124.17623485 69.62548432 127.00858419 71.22776251 129.84008789 72.83154297 C137.33143436 77.07035094 144.84808152 81.26223121 152.375 85.4375 C191.41398067 107.10283419 191.41398067 107.10283419 203.01171875 114.23046875 C205.92392456 116.00342267 205.92392456 116.00342267 208.7578125 117.375 C213.34007848 119.67165379 217.74818794 122.25273697 222.1875 124.8125 C228.58721839 128.48837357 235.00002958 132.12150471 241.49609375 135.625 C255.0899654 143.0899654 255.0899654 143.0899654 257 145 C257.0969974 146.57427207 257.12371644 148.15291485 257.12304783 149.73017216 C257.12503888 150.7597649 257.12702993 151.78935764 257.12908131 152.85015017 C257.12616847 153.99506707 257.12325563 155.13998398 257.12025452 156.31959534 C257.12110894 157.52509771 257.12196337 158.73060008 257.12284368 159.97263283 C257.1242119 163.33385923 257.12106432 166.69502811 257.11606562 170.05624759 C257.11176451 173.67521408 257.1132073 177.29417865 257.1139679 180.91314697 C257.11449335 187.18827807 257.11134434 193.46339881 257.10573006 199.7385273 C257.09761791 208.81141341 257.09500013 217.88429449 257.09374207 226.95718383 C257.0915511 241.67580443 257.08488979 256.39441951 257.07543945 271.11303711 C257.0662665 285.41446912 257.0591851 299.71589963 257.05493164 314.01733398 C257.05466892 314.89823496 257.05440619 315.77913593 257.05413551 316.68673087 C257.05283051 321.10576125 257.05156679 325.52479163 257.05032361 329.94382203 C257.03994959 366.62921859 257.02233006 403.31460886 257 440 C255.8351709 440.61474686 254.6703418 441.22949371 253.47021484 441.86286926 C251.92543727 442.67913378 250.38067919 443.49543516 248.8359375 444.31176758 C248.07015381 444.71579048 247.30437012 445.11981339 246.51538086 445.53607941 C240.94650332 448.48033165 235.44758386 451.52403407 230 454.6875 C222.23775277 459.157794 214.44509065 463.56917307 206.625 467.9375 C197.41280064 473.0853057 188.21615644 478.25958863 179.03173828 483.45678711 C173.06968763 486.83052855 167.10283844 490.19546795 161.13012695 493.55029297 C157.26281896 495.72377811 153.39962923 497.90440417 149.5390625 500.08984375 C147.56771508 501.20574109 145.59636079 502.32162628 143.625 503.4375 C142.64571533 503.99187744 141.66643066 504.54625488 140.6574707 505.11743164 C134.51789923 508.58886444 128.36058261 512.02607687 122.1875 515.4375 C116.87066592 518.37634568 111.61666551 521.38418762 106.43164062 524.55175781 C104.01682475 525.98997947 101.57349708 527.34615053 99.1015625 528.68359375 C94.77550744 531.03289952 90.45612195 533.39379626 86.14453125 535.76953125 C85.55361694 536.09512024 84.96270264 536.42070923 84.35388184 536.75616455 C67.0218382 546.31014375 49.74520989 555.92041006 32.68432617 565.95361328 C27.00989374 569.28214595 21.28966609 572.49523904 15.50219727 575.62280273 C13.31497551 576.826639 11.17126415 578.07314702 9.0390625 579.37109375 C7.91242188 580.05300781 6.78578125 580.73492188 5.625 581.4375 C5.04878906 581.80037109 4.47257812 582.16324219 3.87890625 582.53710938 C1.30179059 584.07222497 -0.37957819 585.06887309 -3.41699219 584.73168945 C-6.03124273 583.99114986 -8.1183475 583.04869295 -10.4921875 581.734375 C-11.35038086 581.26306152 -12.20857422 580.79174805 -13.09277344 580.30615234 C-14.0109082 579.79262207 -14.92904297 579.2790918 -15.875 578.75 C-17.32181152 577.95070068 -17.32181152 577.95070068 -18.79785156 577.13525391 C-27.72213959 572.19157319 -36.59934349 567.16333969 -45.47265625 562.12890625 C-50.69786655 559.16645987 -55.93758499 556.23091761 -61.1875 553.3125 C-61.92387695 552.90241699 -62.66025391 552.49233398 -63.41894531 552.06982422 C-66.58265159 550.3141246 -69.74092104 548.57480043 -73 547 C-73 546.34 -73 545.68 -73 545 C-73.6703125 544.92652344 -74.340625 544.85304688 -75.03125 544.77734375 C-79.00800434 543.73606202 -82.04774045 541.74665233 -85.5 539.5625 C-89.57529976 537.00837649 -93.43502222 534.60652103 -98 533 C-98 532.34 -98 531.68 -98 531 C-98.82628906 530.75894531 -99.65257812 530.51789062 -100.50390625 530.26953125 C-104.58983157 528.78581535 -108.1697408 526.83466321 -111.9375 524.6875 C-113.10551147 524.03044067 -113.10551147 524.03044067 -114.29711914 523.36010742 C-116.86785006 521.9121606 -119.43414953 520.45657562 -122 519 C-123.78108702 517.99189949 -125.56233987 516.98409193 -127.34375 515.9765625 C-130.17623485 514.37451568 -133.00858419 512.77223749 -135.84008789 511.16845703 C-143.33143436 506.92964906 -150.84808152 502.73776879 -158.375 498.5625 C-197.41398067 476.89716581 -197.41398067 476.89716581 -209.01171875 469.76953125 C-211.92392456 467.99657733 -211.92392456 467.99657733 -214.7578125 466.625 C-219.34007848 464.32834621 -223.74818794 461.74726303 -228.1875 459.1875 C-234.58721839 455.51162643 -241.00002958 451.87849529 -247.49609375 448.375 C-261.0899654 440.9100346 -261.0899654 440.9100346 -263 439 C-263.0969974 437.42572793 -263.12371644 435.84708515 -263.12304783 434.26982784 C-263.1260344 432.72543873 -263.1260344 432.72543873 -263.12908131 431.14984983 C-263.12471205 429.43247447 -263.12471205 429.43247447 -263.12025452 427.68040466 C-263.12110894 426.47490229 -263.12196337 425.26939992 -263.12284368 424.02736717 C-263.1242119 420.66614077 -263.12106432 417.30497189 -263.11606562 413.94375241 C-263.11176451 410.32478592 -263.1132073 406.70582135 -263.1139679 403.08685303 C-263.11449335 396.81172193 -263.11134434 390.53660119 -263.10573006 384.2614727 C-263.09761791 375.18858659 -263.09500013 366.11570551 -263.09374207 357.04281617 C-263.0915511 342.32419557 -263.08488979 327.60558049 -263.07543945 312.88696289 C-263.0662665 298.58553088 -263.0591851 284.28410037 -263.05493164 269.98266602 C-263.05466892 269.10176504 -263.05440619 268.22086407 -263.05413551 267.31326913 C-263.05283051 262.89423875 -263.05156679 258.47520837 -263.05032361 254.05617797 C-263.03994959 217.37078141 -263.02233006 180.68539114 -263 144 C-261.8351709 143.38525314 -260.6703418 142.77050629 -259.47021484 142.13713074 C-257.92543727 141.32086622 -256.38067919 140.50456484 -254.8359375 139.68823242 C-253.68726196 139.08219807 -253.68726196 139.08219807 -252.51538086 138.46392059 C-246.94650332 135.51966835 -241.44758386 132.47596593 -236 129.3125 C-228.23775277 124.842206 -220.44509065 120.43082693 -212.625 116.0625 C-203.41280064 110.9146943 -194.21615644 105.74041137 -185.03173828 100.54321289 C-179.06968763 97.16947145 -173.10283844 93.80453205 -167.13012695 90.44970703 C-163.26281896 88.27622189 -159.39962923 86.09559583 -155.5390625 83.91015625 C-153.56771508 82.79425891 -151.59636079 81.67837372 -149.625 80.5625 C-148.64571533 80.00812256 -147.66643066 79.45374512 -146.6574707 78.88256836 C-140.51789923 75.41113556 -134.36058261 71.97392313 -128.1875 68.5625 C-122.87066592 65.62365432 -117.61666551 62.61581238 -112.43164062 59.44824219 C-110.01682475 58.01002053 -107.57349708 56.65384947 -105.1015625 55.31640625 C-100.77550744 52.96710048 -96.45612195 50.60620374 -92.14453125 48.23046875 C-91.55361694 47.90487976 -90.96270264 47.57929077 -90.35388184 47.24383545 C-73.0218382 37.68985625 -55.74520989 28.07958994 -38.68432617 18.04638672 C-33.00989374 14.71785405 -27.28966609 11.50476096 -21.50219727 8.37719727 C-19.31497551 7.173361 -17.17126415 5.92685298 -15.0390625 4.62890625 C-13.91242188 3.94699219 -12.78578125 3.26507812 -11.625 2.5625 C-11.04878906 2.19962891 -10.47257813 1.83675781 -9.87890625 1.46289062 C-6.05346062 -0.81582016 -4.23219465 -1.19885514 0 0 Z M-10.39453125 20.6484375 C-11.42400879 21.2369751 -12.45348633 21.8255127 -13.51416016 22.43188477 C-14.6026123 23.07311279 -15.69106445 23.71434082 -16.8125 24.375 C-17.93962402 25.02331787 -19.06674805 25.67163574 -20.22802734 26.33959961 C-22.47860318 27.6344625 -24.72607534 28.93473668 -26.97021484 30.24072266 C-30.66705151 32.38733063 -34.3917379 34.48020042 -38.125 36.5625 C-42.48996179 39.01585415 -46.84906915 41.47955095 -51.20703125 43.9453125 C-64.53820397 51.48814701 -77.89318223 58.98729559 -91.26025391 66.46630859 C-99.33550259 70.9867784 -107.39951641 75.52702968 -115.453125 80.0859375 C-125.16824115 85.58483081 -134.8909222 91.06751925 -144.6550293 96.47900391 C-161.71351563 105.93485961 -178.67031681 115.57558486 -195.63671875 125.1953125 C-207.37691478 131.84778364 -219.15053526 138.43689181 -230.95410156 144.97607422 C-232.57010254 145.87156982 -232.57010254 145.87156982 -234.21875 146.78515625 C-235.16685547 147.30988525 -236.11496094 147.83461426 -237.09179688 148.37524414 C-240.40727407 150.22753601 -243.70257598 152.1157577 -247 154 C-247 245.08 -247 336.16 -247 430 C-237.43 435.28 -227.86 440.56 -218 446 C-201.6875 455.01480263 -201.6875 455.01480263 -194.453125 459.203125 C-193.50501953 459.7506543 -192.55691406 460.29818359 -191.58007812 460.86230469 C-189.74253055 461.92564743 -187.90772018 462.99373963 -186.07617188 464.06738281 C-181.79848358 466.54315685 -177.80402544 468.68124792 -173 470 C-173 470.66 -173 471.32 -173 472 C-172.30777344 472.32871094 -171.61554688 472.65742188 -170.90234375 472.99609375 C-164.28111693 476.21510916 -157.95630453 479.71282413 -151.69311523 483.57592773 C-147.19884259 486.33535002 -142.60768368 488.87841204 -137.9699707 491.38867188 C-132.75033742 494.2205321 -127.56500104 497.11429854 -122.375 500 C-121.79451904 500.32258789 -121.21403809 500.64517578 -120.6159668 500.97753906 C-111.20710381 506.20653096 -101.8110056 511.45804266 -92.42407227 516.72631836 C-87.02779052 519.75277519 -81.62395947 522.76453869 -76.20703125 525.75390625 C-73.90873486 527.02322149 -71.61055753 528.29275235 -69.3125 529.5625 C-68.19407715 530.18012207 -67.0756543 530.79774414 -65.92333984 531.43408203 C-57.46854963 536.12680493 -49.13203156 540.99886693 -40.88793945 546.05297852 C-40.05093506 546.55885498 -39.21393066 547.06473145 -38.3515625 547.5859375 C-37.62791504 548.0298584 -36.90426758 548.4737793 -36.15869141 548.93115234 C-33.78149312 550.10819081 -31.61135757 550.59081292 -29 551 C-29 551.66 -29 552.32 -29 553 C-28.27296875 553.35191406 -27.5459375 553.70382812 -26.796875 554.06640625 C-20.18582213 557.31260273 -13.89449791 560.80230134 -7.69140625 564.77734375 C-4.43653644 566.25597111 -3.3874655 565.93811071 0 565 C2.47152014 563.91164373 2.47152014 563.91164373 4.96484375 562.515625 C5.91915283 561.9987915 6.87346191 561.48195801 7.85668945 560.94946289 C9.38169067 560.10822876 9.38169067 560.10822876 10.9375 559.25 C12.52147583 558.38459595 12.52147583 558.38459595 14.13745117 557.50170898 C22.33123132 552.99424465 30.41179924 548.30766012 38.42749023 543.49121094 C44.53275388 539.82604929 50.73366606 536.38127938 57 533 C58.6063664 532.12143094 60.21186979 531.24128167 61.81640625 530.359375 C62.59081055 529.93382324 63.36521484 529.50827148 64.16308594 529.06982422 C89.53483821 515.11381152 114.75659295 500.89837083 139.953125 486.62890625 C141.9061804 485.52331453 143.85930478 484.41784468 145.8125 483.3125 C146.76922607 482.77101318 147.72595215 482.22952637 148.71166992 481.67163086 C154.58222068 478.35349348 160.47152556 475.07161568 166.375 471.8125 C173.01895053 468.14310922 179.57167422 464.33659045 186.10131836 460.46801758 C190.69587836 457.75107063 195.32941751 455.13341182 200.03125 452.60546875 C203.85147429 450.53953167 207.6429465 448.42537638 211.4375 446.3125 C221.2759841 440.8466755 231.13834635 435.42390951 241 430 C241 338.92 241 247.84 241 154 C233.08 149.71 225.16 145.42 217 141 C206.46259908 134.98786328 206.46259908 134.98786328 201.70703125 132.24609375 C197.3948555 129.77723167 193.05462281 127.36402441 188.69921875 124.97265625 C188.0635347 124.62345627 187.42785065 124.27425629 186.77290344 123.91447449 C183.6466834 122.19854924 180.51798947 120.4873274 177.38598633 118.78198242 C170.41284089 114.97057298 163.60264602 110.97749821 156.88256836 106.73999023 C154.16455699 105.09933071 151.42825041 103.67469278 148.5625 102.3125 C141.52673792 98.90719115 134.87836191 94.86521496 128.17993164 90.8449707 C122.77375937 87.60690636 117.32004268 84.50051882 111.77563477 81.50537109 C106.9884951 78.90905627 102.24777516 76.22990597 97.5 73.5625 C88.47140407 68.49706537 79.42886953 63.4576088 70.375 58.4375 C61.09034766 53.28701568 51.83050705 48.09520525 42.59277344 42.86108398 C35.28184813 38.71980103 27.9567347 34.60432431 20.625 30.5 C19.08271729 29.63652954 19.08271729 29.63652954 17.50927734 28.75561523 C15.57282485 27.67215049 13.63521537 26.59075022 11.69628906 25.51171875 C9.94080246 24.52747635 8.19228507 23.53066469 6.45214844 22.51953125 C5.28087402 21.84470703 5.28087402 21.84470703 4.0859375 21.15625 C3.41353027 20.76244141 2.74112305 20.36863281 2.04833984 19.96289062 C-3.01349727 17.58340486 -5.56595203 17.84125193 -10.39453125 20.6484375 Z " fill="#808BF6" transform="translate(299,6)"/>
<path d="M0 0 C2.45068359 1.1640625 2.45068359 1.1640625 5.0234375 2.625 C6.46928223 3.43710937 6.46928223 3.43710937 7.94433594 4.265625 C8.95270508 4.83796875 9.96107422 5.4103125 11 6 C13.03291694 7.12669272 15.06679241 8.25165747 17.1015625 9.375 C19.27636834 10.58274528 21.45083434 11.79110267 23.625 13 C24.20415161 13.32192322 24.78330322 13.64384644 25.38000488 13.9755249 C42.72406591 23.61708453 60.03691261 33.31339424 77.30615234 43.08837891 C89.99279271 50.26556792 102.69600593 57.41670195 115.45703125 64.4609375 C121.12043917 67.60417955 126.71048699 70.87408014 132.3125 74.125 C141.06807684 79.19648625 149.86771605 84.1735122 158.75146484 89.01733398 C164.52227573 92.16963798 170.23828421 95.40773688 175.9375 98.6875 C184.97656248 103.88493954 194.09306208 108.9349977 203.23010254 113.95715332 C214.57938894 120.19637613 225.86677537 126.53899329 237.12182617 132.94702148 C238.39767719 133.66231402 239.69173727 134.34586863 241 135 C241 226.08 241 317.16 241 411 C233.08 415.29 225.16 419.58 217 424 C213.03614578 426.28499156 209.09710464 428.56775579 205.1875 430.9375 C196.43463437 436.20782836 187.5245447 441.11312862 178.51953125 445.9375 C167.12146998 452.04601801 155.86869396 458.34640774 144.72412109 464.90600586 C137.72138235 469.0200433 130.6545188 472.99018805 123.52441406 476.87841797 C110.06836244 484.22176263 96.72749446 491.7795432 83.51171875 499.546875 C81.0500552 500.97104116 78.56531519 502.3371439 76.0625 503.6875 C69.59982541 507.17753242 63.24076695 510.84725838 56.87524414 514.51049805 C51.59162099 517.54441662 46.27404734 520.50396231 40.91943359 523.41064453 C35.44985224 526.38831426 30.00751844 529.41522268 24.5625 532.4375 C23.42490234 533.06720703 22.28730469 533.69691406 21.11523438 534.34570312 C19.98537109 534.97283203 18.85550781 535.59996094 17.69140625 536.24609375 C16.02295654 537.16817627 16.02295654 537.16817627 14.32080078 538.10888672 C12.08421528 539.38256642 9.87389707 540.70337815 7.69091797 542.06689453 C6.12494873 543.04118408 6.12494873 543.04118408 4.52734375 544.03515625 C3.14470337 544.92473022 3.14470337 544.92473022 1.73413086 545.83227539 C-1.6957263 547.29713893 -3.44518632 547.00535971 -7 546 C-9.16235352 545.00024414 -9.16235352 545.00024414 -11.12890625 543.78515625 C-11.85400391 543.34623047 -12.57910156 542.90730469 -13.32617188 542.45507812 C-14.06416016 541.99552734 -14.80214844 541.53597656 -15.5625 541.0625 C-22.02878767 537.03268502 -22.02878767 537.03268502 -29 534 C-29 533.34 -29 532.68 -29 532 C-29.88469971 531.72631592 -30.76939941 531.45263184 -31.6809082 531.1706543 C-34.73012913 530.09518432 -37.30330718 528.86492056 -40.10546875 527.26953125 C-41.07484375 526.72167969 -42.04421875 526.17382812 -43.04296875 525.609375 C-44.08066406 525.01640625 -45.11835938 524.4234375 -46.1875 523.8125 C-48.44110362 522.53722548 -50.69502056 521.26250451 -52.94921875 519.98828125 C-53.81901871 519.49529037 -53.81901871 519.49529037 -54.70639038 518.99234009 C-60.9489251 515.45524502 -67.22396272 511.97723315 -73.5 508.5 C-85.29588422 501.95453194 -97.07032203 495.37138698 -108.83691406 488.7734375 C-114.39035207 485.65980878 -119.94518584 482.54867274 -125.5 479.4375 C-126.5204541 478.86572021 -127.5409082 478.29394043 -128.59228516 477.70483398 C-130.04707275 476.88994507 -130.04707275 476.88994507 -131.53125 476.05859375 C-132.46630371 475.53475098 -133.40135742 475.0109082 -134.36474609 474.47119141 C-136.72046335 473.15605779 -139.08217373 471.85250572 -141.4453125 470.55078125 C-148.25415496 466.77326231 -154.93930629 462.7777571 -161.64453125 458.8203125 C-162.67707031 458.21445312 -163.70960938 457.60859375 -164.7734375 456.984375 C-165.70591309 456.43491211 -166.63838867 455.88544922 -167.59912109 455.31933594 C-170.02874635 453.89056041 -170.02874635 453.89056041 -173 453 C-173 452.34 -173 451.68 -173 451 C-173.82628906 450.75894531 -174.65257812 450.51789063 -175.50390625 450.26953125 C-179.58983157 448.78581535 -183.1697408 446.83466321 -186.9375 444.6875 C-187.71617432 444.24946045 -188.49484863 443.8114209 -189.29711914 443.36010742 C-191.86785006 441.9121606 -194.43414953 440.45657562 -197 439 C-198.78108702 437.99189949 -200.56233987 436.98409193 -202.34375 435.9765625 C-204.1896875 434.93242187 -206.035625 433.88828125 -207.9375 432.8125 C-220.92298779 425.4787271 -233.96341268 418.24254851 -247 411 C-247 319.92 -247 228.84 -247 135 C-220 120 -220 120 -210.3125 114.625 C-192.50054198 104.72766201 -174.7778158 94.67040844 -157.046875 84.62890625 C-155.0938196 83.52331453 -153.14069522 82.41784468 -151.1875 81.3125 C-149.75241089 80.50026978 -149.75241089 80.50026978 -148.28833008 79.67163086 C-142.41777932 76.35349348 -136.52847444 73.07161568 -130.625 69.8125 C-123.98104947 66.14310922 -117.42832578 62.33659045 -110.89868164 58.46801758 C-106.30010637 55.74869624 -101.6618049 53.12991073 -96.95703125 50.59765625 C-79.04994594 40.92262601 -61.29034982 30.91685209 -43.75097656 20.59130859 C-41.18171924 19.10511591 -38.58996048 17.68019116 -35.9765625 16.2734375 C-31.8227374 14.01809484 -27.7180932 11.69359562 -23.6328125 9.31640625 C-22.02792969 8.39118164 -22.02792969 8.39118164 -20.390625 7.44726562 C-18.18409803 6.17376172 -15.98368885 4.88960754 -13.7890625 3.59570312 C-12.726875 2.98791016 -11.6646875 2.38011719 -10.5703125 1.75390625 C-9.61914551 1.20033447 -8.66797852 0.6467627 -7.68798828 0.07641602 C-4.49969027 -1.2003511 -3.22056201 -1.09212128 0 0 Z M-10.125 17.625 C-16.85110654 21.72425439 -23.62934085 25.7260691 -30.4375 29.6875 C-31.45763184 30.28175781 -32.47776367 30.87601563 -33.52880859 31.48828125 C-37.71947141 33.92876057 -41.91131478 36.36720279 -46.10400391 38.80419922 C-49.15327518 40.57676082 -52.20189873 42.35042723 -55.25 44.125 C-56.24016113 44.70145264 -57.23032227 45.27790527 -58.25048828 45.87182617 C-64.8033325 49.69548795 -71.31710454 53.57967672 -77.8125 57.5 C-83.49777334 60.93009474 -89.19936724 64.26777657 -95.05859375 67.39453125 C-105.93191663 73.32937282 -116.56304094 79.72717799 -127.23291016 86.01855469 C-133.47714894 89.69873406 -139.73778674 93.35050795 -146 97 C-164.42290391 107.74006483 -164.42290391 107.74006483 -182.73901367 118.66064453 C-189.56402748 122.77575428 -196.38237697 126.82919562 -203.421875 130.5703125 C-207.6352385 132.90681408 -211.69173401 135.49489649 -215.76171875 138.0703125 C-218.22225546 139.53654306 -220.64161981 140.85330693 -223.20239258 142.12060547 C-224.27231194 142.65136185 -224.27231194 142.65136185 -225.36384583 143.19284058 C-226.17374214 143.59238449 -226.17374214 143.59238449 -227 144 C-227.20528743 176.63804641 -227.36457295 209.27590691 -227.45958797 241.91445149 C-227.47084441 245.76718747 -227.4824933 249.61992218 -227.49438477 253.47265625 C-227.49674556 254.23967038 -227.49910635 255.00668452 -227.50153869 255.7969415 C-227.54070712 268.21851768 -227.61167136 280.63971921 -227.69437516 293.06107308 C-227.77852177 305.80535853 -227.8285252 318.5494477 -227.84679645 331.29399955 C-227.85914964 339.1591378 -227.89817042 347.0232172 -227.9712482 354.8880295 C-228.02442172 360.91763075 -228.03010162 366.94632012 -228.01796913 372.97618294 C-228.02044918 375.45061709 -228.03840629 377.9250906 -228.07284927 380.39928627 C-228.11754392 383.77492752 -228.10690556 387.14601557 -228.08229065 390.52175903 C-228.12161401 391.99550403 -228.12161401 391.99550403 -228.16173178 393.49902165 C-228.0815751 397.55698695 -228.03106817 400.00188801 -225.02945507 402.90756011 C-222.74423145 404.44615135 -220.44976856 405.74470708 -218 407 C-217.01 407.66 -216.02 408.32 -215 409 C-214.01 409 -213.02 409 -212 409 C-212 409.66 -212 410.32 -212 411 C-211.42894531 411.268125 -210.85789062 411.53625 -210.26953125 411.8125 C-204.06005752 414.8135811 -198.24483059 418.25395781 -192.3984375 421.90625 C-187.94270085 424.6513935 -183.39950804 427.23161056 -178.84765625 429.8125 C-174.48691775 432.28544823 -170.1495293 434.79826733 -165.8125 437.3125 C-165.01352295 437.77543457 -164.2145459 438.23836914 -163.39135742 438.71533203 C-160.1014104 440.62185288 -156.81195158 442.5292153 -153.52246094 444.43652344 C-148.75455994 447.20066074 -143.98476793 449.96148298 -139.21289062 452.71875 C-137.061303 453.96450594 -134.913232 455.21614761 -132.765625 456.46875 C-131.48968166 457.20850295 -130.21364584 457.94809644 -128.9375 458.6875 C-127.83277344 459.33074219 -126.72804688 459.97398437 -125.58984375 460.63671875 C-123.19282746 462.15526715 -123.19282746 462.15526715 -121 462 C-121 462.66 -121 463.32 -121 464 C-120.44957031 464.29390625 -119.89914063 464.5878125 -119.33203125 464.890625 C-105.48202421 472.36318694 -91.86506189 480.27130601 -78.31835938 488.27807617 C-73.02302062 491.4064013 -67.70268321 494.489636 -62.375 497.5625 C-55.99298387 501.24524985 -49.6537932 504.98995368 -43.34667969 508.79931641 C-38.18378995 511.90957478 -32.9554457 514.89752169 -27.71484375 517.875 C-23.35240822 520.36167194 -19.01832979 522.89628055 -14.6875 525.4375 C-13.93936035 525.87505615 -13.1912207 526.3126123 -12.42041016 526.76342773 C-7.11918535 529.88081465 -7.11918535 529.88081465 -6 531 C1.14694223 530.90223061 6.34218356 527.24802469 12.3125 523.625 C13.36977295 522.9959375 14.4270459 522.366875 15.51635742 521.71875 C22.72530423 517.41678582 29.88829823 513.03756554 37.03320312 508.63012695 C41.72950611 505.74138217 46.49348815 503.04480798 51.36328125 500.45703125 C54.47521013 498.7374024 57.48169568 496.87892097 60.5 495 C65.20493259 492.07456768 69.95996806 489.34945239 74.83984375 486.73046875 C87.25170089 479.93386466 99.38772441 472.61127938 111.60449219 465.47241211 C117.94800579 461.76902277 124.30721518 458.09420727 130.67675781 454.43579102 C141.50383954 448.2156504 152.24897726 441.87766208 162.93920898 435.42529297 C170.43008297 430.91426336 177.98595273 426.53282536 185.59082031 422.21728516 C196.74202614 415.95236844 196.74202614 415.95236844 207.65523911 409.28864384 C210 408 210 408 212.9826088 407.08367825 C216.97406859 405.56008931 219.15128835 404.22117827 222 401 C224.41601374 393.32062888 223.51050107 384.64582997 223.36230469 376.70532227 C223.35891927 374.18215599 223.36082085 371.65897788 223.36761475 369.13581848 C223.37034611 363.70623395 223.33635652 358.27886265 223.26876068 352.84973335 C223.17109966 345.00072024 223.13997057 337.1525431 223.12490478 329.30298828 C223.09866158 316.56715831 223.01886048 303.8322523 222.90527344 291.09692383 C222.7950707 278.72815565 222.71015729 266.35963872 222.65917969 253.99047852 C222.65602701 253.22764671 222.65287432 252.46481491 222.64962611 251.67886699 C222.63396529 247.85184077 222.61880088 244.02481277 222.60388327 240.19778359 C222.47954624 208.46451143 222.26735293 176.73239949 222 145 C221.26147797 144.57440796 220.52295593 144.14881592 219.76205444 143.71032715 C216.97673224 142.10498333 214.1915988 140.4993126 211.40658569 138.89343262 C210.20967842 138.20336368 209.01269971 137.51341862 207.81564331 136.8236084 C198.76249343 131.60652292 189.7397689 126.34115554 180.74316406 121.02734375 C177.21727912 118.94934322 173.67787673 116.89450203 170.140625 114.8359375 C167.77223916 113.45143334 165.40806411 112.060743 163.046875 110.6640625 C155.98839533 106.49166621 148.91311677 102.36558223 141.75 98.375 C135.80091083 95.05877008 129.98966592 91.5656212 124.20703125 87.96484375 C118.55343392 84.50106853 112.77154151 81.26168879 107 78 C99.88888712 73.97197097 92.80897078 69.91145049 85.8125 65.6875 C77.75255744 60.82197606 69.60427316 56.11377287 61.44824219 51.41162109 C57.42196803 49.09012955 53.39801996 46.76462562 49.375 44.4375 C48.19756226 43.75651245 48.19756226 43.75651245 46.99633789 43.06176758 C41.00513933 39.59226542 35.03638242 36.08570725 29.07519531 32.56494141 C24.61633918 29.93608728 20.13060655 27.36022814 15.625 24.8125 C10.32415738 21.8070569 5.18835858 18.61595362 0.109375 15.25 C-4.03185428 12.79593821 -6.46596026 15.35978759 -10.125 17.625 Z " fill="#1F1B4C" transform="translate(299,25)"/>
<path d="M0 0 C2.80293167 1.13195318 4.99652083 2.40041929 7.453125 4.12890625 C9.63086962 5.56337716 11.88710339 6.77153376 14.1875 8 C18.72605697 10.44147306 23.15534271 13.01965247 27.5625 15.6875 C32.79295249 18.85095321 38.0560048 21.93996137 43.37329102 24.95629883 C49.10888557 28.21695039 54.80429024 31.54527808 60.5 34.875 C67.06607474 38.71308983 73.63686537 42.54245809 80.2265625 46.33984375 C80.80474731 46.67303116 81.38293213 47.00621857 81.9786377 47.34950256 C84.76641895 48.95538256 87.55513134 50.55962657 90.34472656 52.16235352 C95.95222289 55.3890159 101.52201948 58.66769977 107.06201172 62.00878906 C109.79655838 63.63816634 112.57246318 65.17844171 115.375 66.6875 C116.30570312 67.19023438 117.23640625 67.69296875 118.1953125 68.2109375 C118.87335938 68.57445313 119.55140625 68.93796875 120.25 69.3125 C120.25 69.9725 120.25 70.6325 120.25 71.3125 C121.06726563 71.54453125 121.88453125 71.7765625 122.7265625 72.015625 C127.01259214 73.59318802 130.70910931 75.73421076 134.625 78.0625 C135.85307373 78.78288452 135.85307373 78.78288452 137.10595703 79.51782227 C138.88443112 80.56127571 140.6615625 81.60702031 142.4375 82.65478516 C147.32438531 85.53516287 152.22539212 88.39133658 157.125 91.25 C158.13409424 91.83966553 159.14318848 92.42933105 160.18286133 93.03686523 C166.87000262 96.94014667 173.58230422 100.79651562 180.3125 104.625 C187.44570579 108.68473662 194.51662879 112.83017745 201.5390625 117.078125 C206.50929712 120.08136965 211.52129142 123.01367773 216.53027344 125.95166016 C217.20348633 126.34659668 217.87669922 126.7415332 218.5703125 127.1484375 C219.16086426 127.49438965 219.75141602 127.8403418 220.35986328 128.19677734 C220.9836084 128.56496582 221.60735352 128.9331543 222.25 129.3125 C223.09922342 129.61931167 223.94844685 129.92612333 224.82340431 130.24223232 C227.25 132.3125 227.25 132.3125 227.72971606 134.29543221 C227.93601947 137.05730909 227.97385713 139.7827576 227.96566772 142.55250549 C227.99006784 144.150603 227.99006784 144.150603 228.01496089 145.7809853 C228.06319765 149.36921137 228.07531857 152.95664889 228.08740234 156.54516602 C228.11380947 159.11065171 228.14217628 161.67611788 228.17236328 164.24156189 C228.25438584 171.95413258 228.29355764 179.66651986 228.3260054 187.3794333 C228.34250622 191.01278746 228.36461029 194.64610632 228.38634109 198.2794323 C228.45695313 210.36038616 228.51683222 222.44130306 228.54146385 234.52244663 C228.54306481 235.2958398 228.54466576 236.06923296 228.54631523 236.86606228 C228.54871869 238.0289185 228.54871869 238.0289185 228.55117071 239.21526676 C228.55443815 240.78617072 228.55772633 242.35707464 228.56103516 243.92797852 C228.56348281 245.09681071 228.56348281 245.09681071 228.56597991 246.28925567 C228.59440791 258.90581005 228.69739267 271.52057437 228.83227508 284.13639546 C228.96967844 297.09331616 229.04297452 310.04933437 229.05285609 323.0069918 C229.05992989 330.28090229 229.09452989 337.55235676 229.20023727 344.82556343 C229.2994418 351.67143941 229.31119136 358.51270892 229.26429749 365.35912514 C229.26099465 367.86904179 229.28669533 370.37919258 229.34378433 372.88846207 C229.74038977 391.38439344 229.74038977 391.38439344 225.56574106 396.29278827 C221.51474025 399.60589148 217.08475528 401.70623357 212.21368623 403.54616535 C209.73553633 404.51327105 207.53008114 405.79634695 205.27734375 407.203125 C203.91435648 407.99009271 202.5510782 408.77655663 201.1875 409.5625 C190.90433437 415.50381297 180.64801982 421.49083799 170.39208984 427.47900391 C167.17513702 429.35618461 163.95688468 431.23111974 160.73828125 433.10546875 C159.13956177 434.03685669 159.13956177 434.03685669 157.50854492 434.98706055 C155.48685469 436.16479158 153.46490137 437.34207117 151.44262695 438.51879883 C143.67861388 443.04336531 135.97589976 447.66481296 128.28515625 452.3125 C113.02516008 461.52713768 113.02516008 461.52713768 105.18359375 465.7109375 C98.63312816 469.28709048 92.2131441 473.09995869 85.76269531 476.85253906 C83.30998279 478.27764797 80.854779 479.69834411 78.3984375 481.1171875 C70.24628264 485.82621171 62.10980666 490.55988762 53.99975586 495.34106445 C46.89641823 499.52662585 39.78123708 503.69209576 32.64624023 507.82348633 C27.25377643 510.95038864 21.90036262 514.12619726 16.58984375 517.390625 C15.50711182 518.04708008 14.42437988 518.70353516 13.30883789 519.37988281 C11.22631169 520.64399426 9.15334989 521.92403351 7.09155273 523.22167969 C6.15126221 523.78790039 5.21097168 524.35412109 4.2421875 524.9375 C3.42089355 525.44539062 2.59959961 525.95328125 1.75341797 526.4765625 C-1.73585509 527.64169523 -3.43092813 526.77625025 -6.75 525.3125 C-8.49988456 524.40621231 -10.22306095 523.44676236 -11.91796875 522.44140625 C-12.88460449 521.87228516 -13.85124023 521.30316406 -14.84716797 520.71679688 C-16.37688232 519.80510742 -16.37688232 519.80510742 -17.9375 518.875 C-20.08964832 517.60513748 -22.24199461 516.33561042 -24.39453125 515.06640625 C-25.46396973 514.4336377 -26.5334082 513.80086914 -27.63525391 513.14892578 C-32.11510751 510.50764511 -36.61909378 507.90899256 -41.125 505.3125 C-46.45413537 502.2344508 -51.75736159 499.12248062 -57.0234375 495.9375 C-61.59440318 493.21325685 -66.20867176 490.56377119 -70.81640625 487.90234375 C-77.47144948 484.05697979 -84.11275752 480.18849738 -90.75 476.3125 C-98.01408573 472.07161758 -105.28202339 467.83768899 -112.5625 463.625 C-113.32401367 463.18430176 -114.08552734 462.74360352 -114.87011719 462.28955078 C-118.78540022 460.02469729 -122.70250747 457.76303947 -126.62109375 455.50390625 C-134.58684126 450.90754915 -142.52431291 446.27478082 -150.39501953 441.51733398 C-154.51993619 439.03066231 -158.68323398 436.6220082 -162.875 434.25 C-167.45662582 431.65185142 -171.9654638 428.96998297 -176.4375 426.1875 C-180.28096108 423.79982514 -184.13747071 421.51306962 -188.125 419.375 C-192.94554838 416.78836428 -197.68561427 414.07876371 -202.30295998 411.14363348 C-206.18497413 408.71022892 -210.05937342 406.6961409 -214.26811886 404.8800869 C-228.81825594 398.20186435 -228.81825594 398.20186435 -232.02047276 391.75453615 C-234.05564844 384.27261554 -233.62719354 376.57919674 -233.42211914 368.89697266 C-233.43393529 366.32510544 -233.4552836 363.75326712 -233.48539734 361.18154907 C-233.54057295 354.94545128 -233.47922555 348.7158201 -233.37704403 342.48052795 C-233.26226573 335.21300691 -233.26360565 327.94684798 -233.26894241 320.67859118 C-233.2744365 307.7103127 -233.17401695 294.74502987 -233.01391602 281.77783203 C-232.85878189 269.20631406 -232.78104602 256.63742958 -232.78833008 244.06494141 C-232.7887696 243.28972179 -232.78920911 242.51450218 -232.78966195 241.71579106 C-232.79010585 240.94188347 -232.79054975 240.16797589 -232.7910071 239.37061656 C-232.79859975 225.03398427 -232.73380741 210.69846594 -232.63532173 196.3621952 C-232.60219042 191.30029178 -232.59045272 186.23859361 -232.58546638 181.17659378 C-232.5771679 174.36429405 -232.50728518 167.55513495 -232.39663887 160.74361801 C-232.36451138 158.24403048 -232.3509756 155.74412488 -232.35734177 153.24433899 C-232.38723178 134.36294985 -232.38723178 134.36294985 -228.3854351 129.3511467 C-225.52344577 127.48252339 -222.98185393 126.38684633 -219.75 125.3125 C-217.9344792 124.34729537 -216.13239275 123.35592817 -214.3515625 122.328125 C-213.4430957 121.84150391 -212.53462891 121.35488281 -211.59863281 120.85351562 C-206.3800069 118.03041254 -201.25947343 115.03506974 -196.125 112.0625 C-194.98635498 111.40427246 -193.84770996 110.74604492 -192.67456055 110.06787109 C-181.84257853 103.79958643 -171.02661043 97.50586774 -160.31494141 91.03369141 C-152.94324168 86.58131963 -145.48809009 82.29086154 -138.00097656 78.03564453 C-130.61030944 73.82622369 -123.2880539 69.50801776 -115.97558594 65.16455078 C-109.83240851 61.52306589 -103.65004863 57.9591053 -97.4375 54.4375 C-88.43837772 49.33335439 -79.57111697 44.02479505 -70.71362305 38.67944336 C-64.31345835 34.82560751 -57.87490402 31.06932528 -51.34448242 27.44140625 C-46.07967855 24.51400261 -40.88503851 21.47743794 -35.69897461 18.41308594 C-29.08269254 14.50384206 -22.44974802 10.62353339 -15.8125 6.75 C-14.75095703 6.12971924 -13.68941406 5.50943848 -12.59570312 4.87036133 C-11.11166992 4.00447388 -11.11166992 4.00447388 -9.59765625 3.12109375 C-8.71086182 2.60345459 -7.82406738 2.08581543 -6.91040039 1.55249023 C-2.92953026 -0.73238256 -2.92953026 -0.73238256 0 0 Z M-8.875 7.9375 C-15.60110654 12.03675439 -22.37934085 16.0385691 -29.1875 20 C-30.20763184 20.59425781 -31.22776367 21.18851563 -32.27880859 21.80078125 C-36.46947141 24.24126057 -40.66131478 26.67970279 -44.85400391 29.11669922 C-47.90327518 30.88926082 -50.95189873 32.66292723 -54 34.4375 C-54.99016113 35.01395264 -55.98032227 35.59040527 -57.00048828 36.18432617 C-63.5533325 40.00798795 -70.06710454 43.89217672 -76.5625 47.8125 C-82.24777334 51.24259474 -87.94936724 54.58027657 -93.80859375 57.70703125 C-104.68191663 63.64187282 -115.31304094 70.03967799 -125.98291016 76.33105469 C-132.22714894 80.01123406 -138.48778674 83.66300795 -144.75 87.3125 C-163.17290391 98.05256483 -163.17290391 98.05256483 -181.48901367 108.97314453 C-188.31402748 113.08825428 -195.13237697 117.14169562 -202.171875 120.8828125 C-206.3852385 123.21931408 -210.44173401 125.80739649 -214.51171875 128.3828125 C-216.97225546 129.84904306 -219.39161981 131.16580693 -221.95239258 132.43310547 C-223.02231194 132.96386185 -223.02231194 132.96386185 -224.11384583 133.50534058 C-224.92374214 133.90488449 -224.92374214 133.90488449 -225.75 134.3125 C-225.95528743 166.95054641 -226.11457295 199.58840691 -226.20958797 232.22695149 C-226.22084441 236.07968747 -226.2324933 239.93242218 -226.24438477 243.78515625 C-226.24674556 244.55217038 -226.24910635 245.31918452 -226.25153869 246.1094415 C-226.29070712 258.53101768 -226.36167136 270.95221921 -226.44437516 283.37357308 C-226.52852177 296.11785853 -226.5785252 308.8619477 -226.59679645 321.60649955 C-226.60914964 329.4716378 -226.64817042 337.3357172 -226.7212482 345.2005295 C-226.77442172 351.23013075 -226.78010162 357.25882012 -226.76796913 363.28868294 C-226.77044918 365.76311709 -226.78840629 368.2375906 -226.82284927 370.71178627 C-226.86754392 374.08742752 -226.85690556 377.45851557 -226.83229065 380.83425903 C-226.87161401 382.30800403 -226.87161401 382.30800403 -226.91173178 383.81152165 C-226.8315751 387.86948695 -226.78106817 390.31438801 -223.77945507 393.22006011 C-221.49423145 394.75865135 -219.19976856 396.05720708 -216.75 397.3125 C-215.76 397.9725 -214.77 398.6325 -213.75 399.3125 C-212.76 399.3125 -211.77 399.3125 -210.75 399.3125 C-210.75 399.9725 -210.75 400.6325 -210.75 401.3125 C-210.17894531 401.580625 -209.60789062 401.84875 -209.01953125 402.125 C-202.81005752 405.1260811 -196.99483059 408.56645781 -191.1484375 412.21875 C-186.69270085 414.9638935 -182.14950804 417.54411056 -177.59765625 420.125 C-173.23691775 422.59794823 -168.8995293 425.11076733 -164.5625 427.625 C-163.76352295 428.08793457 -162.9645459 428.55086914 -162.14135742 429.02783203 C-158.8514104 430.93435288 -155.56195158 432.8417153 -152.27246094 434.74902344 C-147.50455994 437.51316074 -142.73476793 440.27398298 -137.96289062 443.03125 C-135.811303 444.27700594 -133.663232 445.52864761 -131.515625 446.78125 C-130.23968166 447.52100295 -128.96364584 448.26059644 -127.6875 449 C-126.58277344 449.64324219 -125.47804688 450.28648437 -124.33984375 450.94921875 C-121.94282746 452.46776715 -121.94282746 452.46776715 -119.75 452.3125 C-119.75 452.9725 -119.75 453.6325 -119.75 454.3125 C-119.19957031 454.60640625 -118.64914063 454.9003125 -118.08203125 455.203125 C-104.23202421 462.67568694 -90.61506189 470.58380601 -77.06835938 478.59057617 C-71.77302062 481.7189013 -66.45268321 484.802136 -61.125 487.875 C-54.74298387 491.55774985 -48.4037932 495.30245368 -42.09667969 499.11181641 C-36.93378995 502.22207478 -31.7054457 505.21002169 -26.46484375 508.1875 C-22.10240822 510.67417194 -17.76832979 513.20878055 -13.4375 515.75 C-12.68936035 516.18755615 -11.9412207 516.6251123 -11.17041016 517.07592773 C-5.86918535 520.19331465 -5.86918535 520.19331465 -4.75 521.3125 C2.39694223 521.21473061 7.59218356 517.56052469 13.5625 513.9375 C14.61977295 513.3084375 15.6770459 512.679375 16.76635742 512.03125 C23.97530423 507.72928582 31.13829823 503.35006554 38.28320312 498.94262695 C42.97950611 496.05388217 47.74348815 493.35730798 52.61328125 490.76953125 C55.72521013 489.0499024 58.73169568 487.19142097 61.75 485.3125 C66.45493259 482.38706768 71.20996806 479.66195239 76.08984375 477.04296875 C88.50170089 470.24636466 100.63772441 462.92377938 112.85449219 455.78491211 C119.19800579 452.08152277 125.55721518 448.40670727 131.92675781 444.74829102 C142.75383954 438.5281504 153.49897726 432.19016208 164.18920898 425.73779297 C171.68008297 421.22676336 179.23595273 416.84532536 186.84082031 412.52978516 C197.99202614 406.26486844 197.99202614 406.26486844 208.90523911 399.60114384 C211.25 398.3125 211.25 398.3125 214.2326088 397.39617825 C218.22406859 395.87258931 220.40128835 394.53367827 223.25 391.3125 C225.66601374 383.63312888 224.76050107 374.95832997 224.61230469 367.01782227 C224.60891927 364.49465599 224.61082085 361.97147788 224.61761475 359.44831848 C224.62034611 354.01873395 224.58635652 348.59136265 224.51876068 343.16223335 C224.42109966 335.31322024 224.38997057 327.4650431 224.37490478 319.61548828 C224.34866158 306.87965831 224.26886048 294.1447523 224.15527344 281.40942383 C224.0450707 269.04065565 223.96015729 256.67213872 223.90917969 244.30297852 C223.90602701 243.54014671 223.90287432 242.77731491 223.89962611 241.99136699 C223.88396529 238.16434077 223.86880088 234.33731277 223.85388327 230.51028359 C223.72954624 198.77701143 223.51735293 167.04489949 223.25 135.3125 C222.51147797 134.88690796 221.77295593 134.46131592 221.01205444 134.02282715 C218.22673224 132.41748333 215.4415988 130.8118126 212.65658569 129.20593262 C211.45967842 128.51586368 210.26269971 127.82591862 209.06564331 127.1361084 C200.01249343 121.91902292 190.9897689 116.65365554 181.99316406 111.33984375 C178.46727912 109.26184322 174.92787673 107.20700203 171.390625 105.1484375 C169.02223916 103.76393334 166.65806411 102.373243 164.296875 100.9765625 C157.23839533 96.80416621 150.16311677 92.67808223 143 88.6875 C137.05091083 85.37127008 131.23966592 81.8781212 125.45703125 78.27734375 C119.80343392 74.81356853 114.02154151 71.57418879 108.25 68.3125 C101.13888712 64.28447097 94.05897078 60.22395049 87.0625 56 C79.00255744 51.13447606 70.85427316 46.42627287 62.69824219 41.72412109 C58.67196803 39.40262955 54.64801996 37.07712562 50.625 34.75 C49.44756226 34.06901245 49.44756226 34.06901245 48.24633789 33.37426758 C42.25513933 29.90476542 36.28638242 26.39820725 30.32519531 22.87744141 C25.86633918 20.24858728 21.38060655 17.67272814 16.875 15.125 C11.57415738 12.1195569 6.43835858 8.92845362 1.359375 5.5625 C-2.78185428 3.10843821 -5.21596026 5.67228759 -8.875 7.9375 Z " fill="#5047B1" transform="translate(297.75,34.6875)"/>
<path d="M0 0 C1.50336914 -0.0299707 1.50336914 -0.0299707 3.03710938 -0.06054688 C10.35989925 -0.05566176 10.35989925 -0.05566176 13.72265625 2.3046875 C15.40391571 4.98097806 15.69841464 6.33741611 15.0625 9.4375 C13.4375 11.25 13.4375 11.25 11.0625 12.4375 C9.0825 12.4375 7.1025 12.4375 5.0625 12.4375 C5.0625 18.3775 5.0625 24.3175 5.0625 30.4375 C13.3125 30.4375 21.5625 30.4375 30.0625 30.4375 C30.0625 24.4975 30.0625 18.5575 30.0625 12.4375 C27.7525 12.4375 25.4425 12.4375 23.0625 12.4375 C21.0625 11.375 21.0625 11.375 20.0625 9.4375 C20.1875 5.875 20.1875 5.875 21.0625 2.4375 C25.42288795 -0.4694253 29.37198776 0.10775719 34.5 0.125 C35.93182617 0.10083008 35.93182617 0.10083008 37.39257812 0.07617188 C38.31361328 0.07552734 39.23464844 0.07488281 40.18359375 0.07421875 C41.0233374 0.07123779 41.86308105 0.06825684 42.72827148 0.06518555 C45.60517933 0.52405852 46.97882457 1.42352654 49.0625 3.4375 C49.53535472 6.67993237 49.65493126 8.54885311 47.8125 11.3125 C46.0625 12.4375 46.0625 12.4375 42.0625 12.4375 C42.0625 28.2775 42.0625 44.1175 42.0625 60.4375 C44.0425 60.4375 46.0225 60.4375 48.0625 60.4375 C49.5475 61.4275 49.5475 61.4275 51.0625 62.4375 C51.5 65.375 51.5 65.375 51.0625 68.4375 C48.02892827 71.44420257 45.7161231 71.82125597 41.52734375 71.8359375 C39.94276367 71.84173828 39.94276367 71.84173828 38.32617188 71.84765625 C37.22853516 71.83605469 36.13089844 71.82445312 35 71.8125 C33.89849609 71.82410156 32.79699219 71.83570313 31.66210938 71.84765625 C30.60701172 71.84378906 29.55191406 71.83992188 28.46484375 71.8359375 C27.50054443 71.83255371 26.53624512 71.82916992 25.54272461 71.82568359 C23.0625 71.4375 23.0625 71.4375 21.24829102 70.06884766 C19.5527983 67.73627975 19.64038846 66.25157696 20.0625 63.4375 C21.125 61.625 21.125 61.625 23.0625 60.4375 C25.3725 60.4375 27.6825 60.4375 30.0625 60.4375 C30.0625 54.4975 30.0625 48.5575 30.0625 42.4375 C21.8125 42.4375 13.5625 42.4375 5.0625 42.4375 C5.0625 48.3775 5.0625 54.3175 5.0625 60.4375 C7.3725 60.4375 9.6825 60.4375 12.0625 60.4375 C14 61.625 14 61.625 15.0625 63.4375 C15.5 65.9375 15.5 65.9375 15.0625 68.4375 C11.99448818 71.41418869 9.72924326 71.82120999 5.52734375 71.8359375 C3.94276367 71.84173828 3.94276367 71.84173828 2.32617188 71.84765625 C1.22853516 71.83605469 0.13089844 71.82445312 -1 71.8125 C-2.10150391 71.82410156 -3.20300781 71.83570313 -4.33789062 71.84765625 C-5.92053711 71.84185547 -5.92053711 71.84185547 -7.53515625 71.8359375 C-8.49945557 71.83255371 -9.46375488 71.82916992 -10.45727539 71.82568359 C-12.9375 71.4375 -12.9375 71.4375 -14.75561523 70.10400391 C-16.56763951 67.54897856 -16.26058516 65.47450048 -15.9375 62.4375 C-15.2775 61.7775 -14.6175 61.1175 -13.9375 60.4375 C-11.9575 60.4375 -9.9775 60.4375 -7.9375 60.4375 C-7.9375 44.5975 -7.9375 28.7575 -7.9375 12.4375 C-9.2575 12.1075 -10.5775 11.7775 -11.9375 11.4375 C-13.9375 9.4375 -13.9375 9.4375 -14.25 6.5 C-13.9375 3.4375 -13.9375 3.4375 -12.72827148 1.77319336 C-9.13739226 -0.90515705 -4.30863927 -0.03036197 0 0 Z " fill="#F2F4F6" transform="translate(278.9375,232.5625)"/>
<path d="M0 0 C2.00761393 -0.37037309 2.00761393 -0.37037309 4 -1 C7.625 -1.1875 7.625 -1.1875 11 -1 C13.81261 1.81261 13.28953797 3.89036367 13.32226562 7.734375 C13.31904297 8.60578125 13.31582031 9.4771875 13.3125 10.375 C13.32861328 11.23867187 13.34472656 12.10234375 13.36132812 12.9921875 C13.36619099 19.29446486 13.36619099 19.29446486 11.66796875 22.56640625 C10 24 10 24 7 24.5625 C4 24 4 24 2.3125 21.875 C1.40240149 19.88145089 0.50758744 17.88088055 -0.375 15.875 C-2.27804656 12.50807148 -3.54912823 11.66527424 -7 10 C-12.01820998 9.24632641 -17.4254493 8.92034971 -22.1796875 10.9140625 C-24.94582471 12.96550397 -25.94021064 14.73366556 -26.6875 18.0625 C-25.74704008 22.08082874 -24.48113069 22.78593073 -21 25 C-17.61419573 26.08793993 -14.17064591 26.79510655 -10.6875 27.5 C0.24032619 29.73962515 7.44353526 32.4855241 14.8125 41.125 C16.96367147 46.33309936 17.13297239 52.01398832 15.12109375 57.31640625 C11.39579056 63.79572896 5.56333894 68.09845141 -1.5078125 70.4921875 C-10.34925587 72.29373552 -18.9343155 71.9155431 -26.94921875 67.6796875 C-29.02301961 66.74448393 -29.02301961 66.74448393 -31.078125 67.859375 C-31.71234375 68.23578125 -32.3465625 68.6121875 -33 69 C-36.0625 69.375 -36.0625 69.375 -39 69 C-40.98011862 67.2248819 -41.88300693 65.77084874 -42.28442383 63.12597656 C-42.40419152 60.88860319 -42.40902822 58.67769146 -42.375 56.4375 C-42.38660156 55.66986328 -42.39820313 54.90222656 -42.41015625 54.11132812 C-42.38118448 48.57289129 -42.38118448 48.57289129 -40.6640625 45.9921875 C-38.06258201 44.44107003 -35.95570244 44.69211433 -33 45 C-30 47 -30 47 -28.8125 50.375 C-27.22974886 54.28292679 -25.13138073 55.71775581 -21.3046875 57.34375 C-14.04025414 59.41226662 -6.76392148 58.1778769 0 55 C2.33300503 53.06422625 2.33300503 53.06422625 2.5 49.625 C2.38776953 45.85666884 2.38776953 45.85666884 -0.484375 43.86328125 C-4.6517787 41.65455729 -8.12550777 41.10692864 -12.75 40.5625 C-21.27070422 39.33909827 -29.06553449 37.67116288 -35 30.9375 C-39.45920368 24.3880446 -40.05949364 18.90836322 -39 11 C-36.31687593 4.80514002 -30.99461724 0.82742068 -25 -2 C-16.5998423 -4.78233072 -7.91208213 -3.30868889 0 0 Z " fill="#F2F4F6" transform="translate(381,235)"/>
<path d="M0 0 C0.9170874 -0.00287018 1.8341748 -0.00574036 2.77905273 -0.00869751 C4.71566384 -0.01073661 6.65229562 -0.00521751 8.58886719 0.00732422 C11.5519011 0.02338007 14.51357098 0.00747033 17.4765625 -0.01171875 C19.35937801 -0.00973629 21.24219267 -0.00589256 23.125 0 C24.45325806 -0.00910904 24.45325806 -0.00910904 25.80834961 -0.0184021 C31.8981544 0.05117746 31.8981544 0.05117746 35.12109375 1.73583984 C36.5625 3.3984375 36.5625 3.3984375 37.0625 6.3984375 C36.5625 9.3984375 36.5625 9.3984375 34.890625 11.07421875 C31.99214716 12.7228496 30.1231257 12.70417413 26.8125 12.5859375 C25.82765625 12.55886719 24.8428125 12.53179687 23.828125 12.50390625 C23.08046875 12.46910156 22.3328125 12.43429688 21.5625 12.3984375 C21.58344727 13.65914062 21.60439453 14.91984375 21.62597656 16.21875 C21.69870087 20.92257201 21.74441736 25.6263449 21.78222656 30.33056641 C21.80226836 32.36157607 21.82950947 34.39252856 21.86425781 36.42333984 C21.91310414 39.35268306 21.93554343 42.2812595 21.953125 45.2109375 C21.97377014 46.11021973 21.99441528 47.00950195 22.01568604 47.93603516 C22.0181119 54.84360706 20.34021934 59.9435627 15.9921875 65.3515625 C8.70126641 71.43343637 1.17286507 74.12379768 -8.34765625 73.79296875 C-16.1609425 72.79531779 -23.27259184 69.50471445 -30.4375 66.3984375 C-30.52442074 62.12773192 -30.57786515 57.85725292 -30.625 53.5859375 C-30.65013672 52.37099609 -30.67527344 51.15605469 -30.70117188 49.90429688 C-30.71567383 48.15922852 -30.71567383 48.15922852 -30.73046875 46.37890625 C-30.7461792 45.30535889 -30.76188965 44.23181152 -30.77807617 43.12573242 C-30.4375 40.3984375 -30.4375 40.3984375 -29.0715332 38.55200195 C-26.69116368 36.87155283 -25.28589124 36.9121268 -22.4375 37.3984375 C-20.32421875 38.91015625 -20.32421875 38.91015625 -18.4375 41.3984375 C-17.98861429 44.26440009 -17.74324802 46.7799486 -17.6875 49.6484375 C-17.65785156 50.39351563 -17.62820312 51.13859375 -17.59765625 51.90625 C-17.5272657 53.73640422 -17.48008168 55.56742519 -17.4375 57.3984375 C-11.20707411 60.25656977 -6.23773138 61.67726362 0.5859375 59.859375 C4.38426278 58.4009463 6.64184071 56.95560375 8.5625 53.3984375 C9.0353458 50.28281499 9.05126685 47.1862035 9.07421875 44.0390625 C9.09216995 43.13468445 9.11012115 42.2303064 9.12861633 41.29852295 C9.18271857 38.4152083 9.21661474 35.53205918 9.25 32.6484375 C9.28317315 30.69138322 9.31766281 28.73435078 9.35351562 26.77734375 C9.43844504 21.98449443 9.5052567 17.19169421 9.5625 12.3984375 C8.97235107 12.41414795 8.38220215 12.4298584 7.77416992 12.44604492 C5.09954414 12.50841689 2.42507136 12.54743407 -0.25 12.5859375 C-1.17876953 12.61107422 -2.10753906 12.63621094 -3.06445312 12.66210938 C-3.95712891 12.67177734 -4.84980469 12.68144531 -5.76953125 12.69140625 C-7.00280151 12.71497192 -7.00280151 12.71497192 -8.26098633 12.73901367 C-10.96647394 12.3156648 -11.82354911 11.57875409 -13.4375 9.3984375 C-13.875 6.3984375 -13.875 6.3984375 -13.4375 3.3984375 C-9.86081198 -0.73832293 -5.04031747 -0.03456591 0 0 Z " fill="#F3F5F7" transform="translate(225.4375,232.6015625)"/>
<path d="M0 0 C0.495 2.475 0.495 2.475 1 5 C-6.92 9.29 -14.84 13.58 -23 18 C-20.34587398 20.65412602 -18.61271978 21.88903246 -15.3671875 23.55859375 C-14.47902344 24.02716797 -13.59085938 24.49574219 -12.67578125 24.97851562 C-10.80403876 25.95354466 -8.929002 26.92227491 -7.05078125 27.88476562 C-6.16519531 28.35462891 -5.27960938 28.82449219 -4.3671875 29.30859375 C-3.55362793 29.72939209 -2.74006836 30.15019043 -1.90185547 30.58374023 C0 32 0 32 0.89794922 34.04321289 C0.93162598 34.68895264 0.96530273 35.33469238 1 36 C0.34 36.66 -0.32 37.32 -1 38 C-5.45137457 37.67933189 -8.7159042 36.34118463 -12.58984375 34.19921875 C-13.62173828 33.63396484 -14.65363281 33.06871094 -15.71679688 32.48632812 C-16.77962891 31.89271484 -17.84246094 31.29910156 -18.9375 30.6875 C-19.99646484 30.10548828 -21.05542969 29.52347656 -22.14648438 28.92382812 C-27.45886411 25.99754534 -32.74473411 23.02757139 -38 20 C-36.70976462 16.12929386 -35.45039515 15.87510701 -31.8984375 14.00390625 C-30.32642578 13.16569336 -30.32642578 13.16569336 -28.72265625 12.31054688 C-27.61792969 11.73369141 -26.51320313 11.15683594 -25.375 10.5625 C-23.21582474 9.41857461 -21.05696266 8.27405787 -18.8984375 7.12890625 C-17.36376831 6.32235596 -17.36376831 6.32235596 -15.7980957 5.49951172 C-13.47382908 4.25392707 -11.20430267 2.95751567 -8.94140625 1.60546875 C-5.66880508 -0.18077173 -3.67225531 -0.35826881 0 0 Z " fill="#36B6EF" transform="translate(140,282)"/>
<path d="M0 0 C3.89487975 1.97910557 6.38991021 4.96354235 8 9 C8.33403245 13.78779839 7.66898085 17.15021351 4.6875 20.9375 C1.10559095 23.68640695 -0.81855606 24.82166884 -5.3125 25.5 C-10.22438844 24.83398123 -12.70893873 22.58855833 -16 19 C-17.86233425 15.27533151 -17.57130829 11.05504687 -17 7 C-13.16297555 -0.17294497 -7.52694471 -1.03899544 0 0 Z " fill="#3687D9" transform="translate(367,374)"/>
<path d="M0 0 C4.57599407 1.83039763 6.71578529 4.68537221 9 9 C9.77602275 13.55913363 8.66444051 16.6424926 6.26171875 20.453125 C3.35188395 24.02060049 -0.05238081 24.84493504 -4.4375 25.5625 C-9.23119566 24.80560069 -11.77215173 22.51963116 -15 19 C-16.86233425 15.27533151 -16.57130829 11.05504687 -16 7 C-12.26573399 0.01915198 -7.27837666 -0.68234781 0 0 Z " fill="#1C9B73" transform="translate(322,374)"/>
<path d="M0 0 C3.77327682 1.64055514 5.80680609 3.55705313 8 7 C8.79893471 11.03462028 8.92775262 15.19603657 7.015625 18.9140625 C4.78762678 21.70593681 2.43851759 23.9886713 -1 25 C-5.18575059 25.4650834 -7.46104738 25.26947631 -11.25 23.375 C-15.13697012 20.01807126 -16.69814904 17.06983519 -17.4375 12 C-16.76022306 7.35581527 -14.38893417 4.54326019 -11.3125 1.125 C-7.61695885 -0.67283083 -4.02717311 -0.53311415 0 0 Z " fill="#EA9C27" transform="translate(278,374)"/>
<path d="M0 0 C3.8026029 2.0050088 5.61790841 3.42686262 8 7 C8.66100598 11.04257341 8.91928345 15.20172043 7.01953125 18.91796875 C3.61926553 23.15522295 0.90912306 24.78787522 -4.375 25.375 C-8.75105769 24.92230438 -10.68356181 23.86419662 -14 21 C-16.64201025 16.94891762 -17.70236884 13.8162435 -17 9 C-12.78298671 1.3190115 -8.69521092 -1.38641145 0 0 Z " fill="#DE4A49" transform="translate(234,374)"/>
<path d="M0 0 C6.89148631 0.18676115 11.99308102 3.39802446 17.875 6.75 C18.81730469 7.2759375 19.75960938 7.801875 20.73046875 8.34375 C22.59212879 9.3840137 24.45125032 10.42883532 26.30761719 11.47851562 C30.19297973 13.67416119 34.09624015 15.83728563 38 18 C35.45495685 20.90237638 32.5887063 22.45278726 29.1953125 24.25 C28.05449219 24.8584375 26.91367187 25.466875 25.73828125 26.09375 C24.53398491 26.72941443 23.32955661 27.36482891 22.125 28 C19.77234527 29.24795758 17.42132781 30.49895239 15.0703125 31.75 C13.50434326 32.57757813 13.50434326 32.57757813 11.90673828 33.421875 C9.99987645 34.45714754 8.12627284 35.55671111 6.29638672 36.72265625 C4 38 4 38 1.1875 37.6875 C0.465625 37.460625 -0.25625 37.23375 -1 37 C-1 35.35 -1 33.7 -1 32 C6.59 27.71 14.18 23.42 22 19 C16.2995672 15.4372295 10.64886522 12.07910206 4.67382812 9.0390625 C1.70628764 7.42451381 0.19986695 6.55224281 -0.97265625 3.3125 C-0.98167969 2.549375 -0.99070312 1.78625 -1 1 C-0.67 0.67 -0.34 0.34 0 0 Z " fill="#7D88F1" transform="translate(459,282)"/>
<path d="M0 0 C2.475 0.495 2.475 0.495 5 1 C4.45186272 4.72054245 3.55508061 7.05004494 1.296875 10.046875 C0.73452148 10.80170166 0.17216797 11.55652832 -0.40722656 12.33422852 C-1.0153418 13.13143311 -1.62345703 13.9286377 -2.25 14.75 C-2.87100586 15.57749756 -3.49201172 16.40499512 -4.13183594 17.25756836 C-6.07856668 19.845578 -8.03818539 22.42341197 -10 25 C-11.25015825 26.65222403 -12.5001629 28.30456428 -13.75 29.95703125 C-15.97890215 32.89352139 -18.20969478 35.82849598 -20.453125 38.75390625 C-20.89817383 39.33470947 -21.34322266 39.9155127 -21.80175781 40.51391602 C-23 42 -23 42 -25 44 C-26.32 44 -27.64 44 -29 44 C-29.65014648 42.23803711 -29.65014648 42.23803711 -30 40 C-29.08227539 38.13500977 -29.08227539 38.13500977 -27.59765625 36.19140625 C-26.76741943 35.08502808 -26.76741943 35.08502808 -25.92041016 33.95629883 C-25.00074463 32.77136841 -25.00074463 32.77136841 -24.0625 31.5625 C-23.13123291 30.33213013 -23.13123291 30.33213013 -22.18115234 29.0769043 C-20.13233479 26.37558898 -18.06595198 23.68822668 -16 21 C-14.49998767 19.0270403 -13.00130331 17.05307031 -11.50390625 15.078125 C-7.68215126 10.04217758 -3.84608446 5.01738515 0 0 Z " fill="#20705E" transform="translate(291,153)"/>
<path d="M0 0 C1.32 0.33 2.64 0.66 4 1 C4.69506836 2.71264648 4.69506836 2.71264648 5 5 C3.77172852 7.20727539 3.77172852 7.20727539 1.87890625 9.59765625 C1.19425293 10.47663574 0.50959961 11.35561523 -0.19580078 12.26123047 C-0.93556152 13.18564941 -1.67532227 14.11006836 -2.4375 15.0625 C-3.92404504 16.96156048 -5.40973174 18.86129319 -6.89453125 20.76171875 C-7.60947754 21.66970215 -8.32442383 22.57768555 -9.06103516 23.51318359 C-11.32615118 26.4183047 -13.4887661 29.37419992 -15.625 32.375 C-18.55077851 36.45158472 -21.66657675 40.24989885 -25 44 C-26.32 43.67 -27.64 43.34 -29 43 C-29.31706057 39.90592621 -29.26723909 38.40297958 -27.5234375 35.7734375 C-26.81445312 34.98195312 -26.10546875 34.19046875 -25.375 33.375 C-20.92723422 28.19416348 -16.83939465 22.82664255 -12.8125 17.3125 C-11.94020752 16.11923096 -11.94020752 16.11923096 -11.05029297 14.90185547 C-9.92068677 13.35623061 -8.79144423 11.81033989 -7.66259766 10.26416016 C-5.135351 6.82250297 -2.57116743 3.40891755 0 0 Z " fill="#32CC95" transform="translate(253,153)"/>
<path d="M0 0 C7.75 -0.125 7.75 -0.125 10 1 C13.01912964 1.0983324 16.01524497 1.13450505 19.03466797 1.12698364 C19.98234983 1.12854363 20.9300317 1.13010362 21.9064312 1.13171089 C25.10169883 1.13571931 28.29691946 1.13253183 31.4921875 1.12939453 C33.77492297 1.13074864 36.05765823 1.13252863 38.34039307 1.13470459 C44.55509218 1.13927776 50.76977476 1.13748983 56.98447418 1.1343255 C63.47516425 1.13180131 69.96585285 1.13413961 76.45654297 1.13571167 C88.05755995 1.13765001 99.65856935 1.13453395 111.25958514 1.12945233 C121.78569071 1.12498437 132.31178525 1.12576033 142.83789062 1.13037109 C155.05110201 1.13571834 167.26430555 1.1377169 179.47751808 1.13475883 C185.94642019 1.13319633 192.41531469 1.13300156 198.88421631 1.13629532 C204.9645641 1.13917474 211.04489099 1.137197 217.12523651 1.13140106 C219.36262731 1.13007385 221.60001986 1.13046692 223.83740997 1.13266373 C226.88007478 1.13537673 229.92267161 1.1319922 232.96533203 1.12698364 C233.86084211 1.12921436 234.7563522 1.13144509 235.67899895 1.13374341 C239.97509516 1.24844506 239.97509516 1.24844506 244 0 C246.6723621 -0.13415472 249.32250488 -0.04318541 252 0 C252 0.99 252 1.98 252 3 C168.84 3 85.68 3 0 3 C0 2.01 0 1.02 0 0 Z " fill="#272655" transform="translate(170,344)"/>
</svg>
